<?xml version="1.0" encoding="UTF-8"?>
<!DOCTYPE svg PUBLIC "-//W3C//DTD SVG 1.1//EN" "http://www.w3.org/Graphics/SVG/1.1/DTD/svg11.dtd">
<svg xmlns="http://www.w3.org/2000/svg" version="1.1" width="500px" height="500px" style="shape-rendering:geometricPrecision; text-rendering:geometricPrecision; image-rendering:optimizeQuality; fill-rule:evenodd; clip-rule:evenodd" xmlns:xlink="http://www.w3.org/1999/xlink">
<g><path style="opacity:0.704" fill="#fefffe" d="M 271.5,22.5 C 312.648,26.0884 349.982,39.7551 383.5,63.5C 362.927,114.39 342.26,165.224 321.5,216C 376.757,224.324 432.09,232.157 487.5,239.5C 490.439,279.931 484.439,318.931 469.5,356.5C 387.016,347.768 324.516,308.102 282,237.5C 245.217,167.47 241.717,95.8037 271.5,22.5 Z M 274.5,26.5 C 312.702,30.4511 347.368,43.4511 378.5,65.5C 358,115.833 337.5,166.167 317,216.5C 316.251,217.635 316.417,218.635 317.5,219.5C 372.756,227.657 428.089,235.324 483.5,242.5C 486.389,280.165 480.723,316.498 466.5,351.5C 389.54,343.343 330.374,306.676 289,241.5C 249.27,172.154 244.437,100.488 274.5,26.5 Z"/></g>
<g><path style="opacity:0.707" fill="#fefffe" d="M 219.5,23.5 C 221.467,23.2606 223.301,23.5939 225,24.5C 252.169,87.6074 253.503,151.274 229,215.5C 194.714,292.738 136.214,340.238 53.5,358C 46.5538,359.517 39.5538,360.184 32.5,360C 16.1755,322.888 9.50886,284.055 12.5,243.5C 67.2779,236.579 121.945,228.913 176.5,220.5C 155.398,169.023 134.398,117.523 113.5,66C 145.616,43.7739 180.95,29.6072 219.5,23.5 Z M 218.5,27.5 C 219.978,27.238 221.311,27.5713 222.5,28.5C 255.245,107.601 248.745,183.268 203,255.5C 162.643,312.537 107.643,346.204 38,356.5C 36.8333,356.167 35.6667,355.833 34.5,355.5C 19.6629,320.651 13.9963,284.484 17.5,247C 72.1693,239.452 126.836,231.952 181.5,224.5C 160.925,172.181 139.925,120.014 118.5,68C 148.792,46.959 182.125,33.459 218.5,27.5 Z"/></g>
<g><path style="opacity:0.684" fill="#fefffe" d="M 249.5,299.5 C 330.797,300.732 395.964,333.398 445,397.5C 445.667,398.5 445.667,399.5 445,400.5C 421.005,432.497 391.005,457.163 355,474.5C 321.009,431.198 287.009,387.865 253,344.5C 218.951,387.547 185.285,430.881 152,474.5C 150.612,475.554 149.112,475.72 147.5,475C 112.354,458.19 82.8535,434.357 59,403.5C 58.8363,400.478 59.8363,397.811 62,395.5C 109.642,334.761 172.142,302.761 249.5,299.5 Z M 240.5,303.5 C 323.627,302.069 390.627,333.902 441.5,399C 418.711,429.298 390.378,452.798 356.5,469.5C 322.862,427.568 289.695,385.235 257,342.5C 255.649,340.981 254.149,339.648 252.5,338.5C 217.809,382.69 183.309,427.024 149,471.5C 115.663,455.171 87.33,432.505 64,403.5C 63.4795,401.711 63.8129,400.044 65,398.5C 109.394,341.049 167.894,309.382 240.5,303.5 Z"/></g>
</svg>
