<svg width="37" height="73" viewBox="0 0 37 73" fill="none" xmlns="http://www.w3.org/2000/svg">
<path d="M36.5004 73.0007C31.7071 73.0007 26.9607 72.0566 22.5323 70.2223C18.1039 68.388 14.0801 65.6994 10.6907 62.31C7.30134 58.9207 4.61275 54.8969 2.77843 50.4685C0.944113 46.04 5.41501e-06 41.2937 4.78645e-06 36.5004C4.15788e-06 31.7071 0.944111 26.9607 2.77843 22.5323C4.61275 18.1039 7.30134 14.0801 10.6907 10.6907C14.0801 7.30134 18.1039 4.61275 22.5323 2.77843C26.9607 0.944115 31.7071 4.99597e-06 36.5004 4.78645e-06L36.5004 36.5004L36.5004 73.0007Z" fill="#243292"/>
</svg>
