<svg width="37" height="73" viewBox="0 0 37 73" fill="none" xmlns="http://www.w3.org/2000/svg">
<path d="M-3.19096e-06 -0.0007416C4.79329 -0.00074181 9.53965 0.943365 13.9681 2.77768C18.3965 4.612 22.4203 7.30059 25.8097 10.69C29.199 14.0793 31.8876 18.1031 33.7219 22.5315C35.5563 26.96 36.5004 31.7063 36.5004 36.4996C36.5004 41.2929 35.5563 46.0393 33.7219 50.4677C31.8876 54.8961 29.199 58.9199 25.8097 62.3093C22.4203 65.6987 18.3965 68.3873 13.9681 70.2216C9.53965 72.0559 4.79329 73 -3.85419e-06 73L-1.59548e-06 36.4996L-3.19096e-06 -0.0007416Z" fill="#9AA3DC"/>
</svg>
